<svg width="85" height="95" viewBox="0 0 85 95" fill="none" xmlns="http://www.w3.org/2000/svg">
<path d="M36.5957 15.8145C37.7676 15.375 39.0859 15.375 40.2578 15.8145L73.0703 29.877C75.1211 30.7559 76.293 32.9531 75.8535 35.1504C75.4141 37.3477 73.5098 38.8125 71.166 38.8125V39.9844C71.166 42.0352 69.7012 43.5 67.6504 43.5H9.05664C7.15234 43.5 5.54102 42.0352 5.54102 39.9844V38.8125C3.34375 38.8125 1.43945 37.3477 1 35.1504C0.560547 32.9531 1.73242 30.7559 3.7832 29.877L36.5957 15.8145ZM38.5 34.125C40.9902 34.125 43.1875 32.0742 43.1875 29.4375C43.1875 26.9473 40.9902 24.75 38.5 24.75C35.8633 24.75 33.8125 26.9473 33.8125 29.4375C33.8125 32.0742 35.8633 34.125 38.5 34.125ZM19.6035 76.3125H25.4629V48.1875H34.8379V76.3125H42.0156V48.1875H51.3906V76.3125H57.25V48.1875H66.625V77.0449C66.625 77.0449 66.7715 77.0449 66.7715 77.1914L73.8027 81.8789C75.5605 83.0508 76.293 85.1016 75.707 87.1523C75.1211 89.0566 73.3633 90.375 71.3125 90.375H5.54102C3.49023 90.375 1.73242 89.0566 1.14648 87.1523C0.560547 85.1016 1.29297 83.0508 3.05078 81.8789L10.082 77.1914C10.082 77.0449 10.2285 77.0449 10.2285 77.0449V48.1875H19.6035V76.3125Z" fill="url(#paint0_linear_7_27)"/>
<path d="M73.1089 10.9137L72.4686 11.9872C75.9068 15.1295 76.81 20.3257 74.3448 24.4588L73.7365 25.4787C72.2318 28.0016 71.6716 31.015 72.2151 33.8862L72.3347 34.5397C72.4976 35.3646 72.1888 36.1264 71.5362 36.6105C70.9156 37.0409 70.0474 37.0324 69.4033 36.6482L48.7912 24.3543C48.0934 23.9381 47.6734 23.1781 47.7571 22.4276C47.8729 21.6234 48.3965 20.9896 49.1997 20.741L49.8316 20.5357C52.6162 19.6495 55.0551 17.7566 56.5598 15.2337L57.1681 14.2139C59.6333 10.0807 64.5809 8.37421 69.0332 9.9382L69.6735 8.86466C70.2178 7.95214 71.4495 7.5952 72.4157 8.17148C73.3282 8.71574 73.6531 10.0011 73.1089 10.9137ZM56.0237 35.6543C55.1112 35.11 54.3908 34.2437 54.1309 33.2154C53.8709 32.1871 54.0931 31.0824 54.6374 30.1699L61.5081 34.2679C60.9638 35.1804 60.0438 35.8688 59.0155 36.1288C57.9872 36.3887 56.8826 36.1665 56.0237 35.6543Z" fill="#F5C61F" fill-opacity="0.5"/>
<defs>
<linearGradient id="paint0_linear_7_27" x1="68" y1="15" x2="6.5" y2="86" gradientUnits="userSpaceOnUse">
<stop stop-color="#C5C5C5" stop-opacity="0.5"/>
<stop offset="1" stop-color="white"/>
</linearGradient>
</defs>
</svg>
